<?xml version="1.0" encoding="UTF-8" standalone="no"?>
<svg
   height="24"
   viewBox="0 -960 4000 960"
   width="100"
   fill="#e8eaed"
   version="1.1"
   id="svg1"
   xmlns="http://www.w3.org/2000/svg"
   xmlns:svg="http://www.w3.org/2000/svg">
  <defs
     id="defs1" />
  <g
     id="g1">
    <path
       d="m 200,-320 v -200 q 0,-17 11.5,-28.5 11.5,-11.5 28.5,-11.5 17,0 28.5,11.5 11.5,11.5 11.5,28.5 v 200 q 0,17 -11.5,28.5 Q 257,-280 240,-280 223,-280 211.5,-291.5 200,-303 200,-320 Z m 240,0 v -200 q 0,-17 11.5,-28.5 11.5,-11.5 28.5,-11.5 17,0 28.5,11.5 11.5,11.5 11.5,28.5 v 200 q 0,17 -11.5,28.5 Q 497,-280 480,-280 463,-280 451.5,-291.5 440,-303 440,-320 Z M 840,-640 H 116 q -15,0 -25.5,-10.5 Q 80,-661 80,-676 v -22 q 0,-11 5.5,-19 5.5,-8 14.5,-13 l 344,-172 q 17,-8 36,-8 19,0 36,8 l 342,171 q 11,5 16.5,15 5.5,10 5.5,21 v 15 q 0,17 -11.5,28.5 Q 857,-640 840,-640 Z M 259,-720 H 701 L 480,-830 Z m -139,600 q -17,0 -28.5,-11.5 Q 80,-143 80,-160 80,-177 91.5,-188.5 103,-200 120,-200 h 402 q 17,0 28.5,11.5 11.5,11.5 11.5,28.5 0,17 -11.5,28.5 Q 539,-120 522,-120 Z m 600,-330 q -17,0 -28.5,-11.5 Q 680,-473 680,-490 v -30 q 0,-17 11.5,-28.5 11.5,-11.5 28.5,-11.5 17,0 28.5,11.5 11.5,11.5 11.5,28.5 v 30 q 0,17 -11.5,28.5 Q 737,-450 720,-450 Z m -80,232 v -77 q 0,-11 5.5,-21 5.5,-10 16.5,-15 l 120,-60 q 8,-5 18,-5 10,0 18,5 l 120,60 q 11,5 16.5,15 5.5,10 5.5,21 v 77 q 0,75 -39,129.5 -39,54.5 -106,82.5 -2,1 -15,3 -2,0 -15,-3 Q 718,-34 679,-88.5 640,-143 640,-218 Z m 131,13 -18,-18 q -9,-9 -21,-8.5 -12,0.5 -21,9.5 -9,9 -9,21 0,12 9,21 l 32,32 q 12,12 28,12 16,0 28,-12 l 90,-89 q 9,-9 9,-21 0,-12 -9,-21 -9,-9 -21,-8.5 -12,0.5 -21,8.5 z M 259,-720 h 442 z"
       id="path1"
       style="fill:#5a4077;fill-opacity:1;stroke:none" />
    <rect
       style="opacity:0;fill:none;stroke:none;stroke-width:40"
       id="rect1"
       width="960"
       height="960"
       x="0"
       y="-960" />
  </g>
  <path
     d="m 1655.3735,-362.99613 q 0,58.89179 -22.2834,103.9891 -22.2834,45.09731 -59.9529,74.27792 -44.5667,35.01674 -98.153,49.87233 -53.0556,14.85558 -135.2919,14.85558 H 1059.5584 V -910 h 233.9755 q 86.4807,0 129.4558,6.36668 42.9751,6.36668 82.2363,26.52783 43.5056,22.81393 63.1362,58.89178 19.6306,35.54729 19.6306,85.41962 0,56.239 -28.6501,96.03075 -28.65,39.26118 -76.4001,63.13623 v 4.24446 q 80.114,16.44725 126.2725,70.56403 46.1584,53.58621 46.1584,135.82249 z m -176.6754,-356.00349 q 0,-28.65006 -9.55,-48.28065 -9.55,-19.6306 -30.7723,-31.8334 -24.9361,-14.32503 -60.4834,-17.50837 -35.5473,-3.7139 -88.0724,-3.7139 h -125.2114 v 228.13935 h 135.8225 q 49.3418,0 78.5224,-4.77501 29.1806,-5.30556 54.1168,-21.22226 24.9361,-15.9167 35.0167,-40.85286 10.6111,-25.46672 10.6111,-59.9529 z m 67.3807,360.24794 q 0,-47.75009 -14.325,-75.86959 -14.325,-28.1195 -51.9946,-47.7501 -25.4667,-13.26391 -62.0751,-16.97781 -36.0778,-4.24445 -88.0724,-4.24445 h -165.0031 v 293.92836 h 139.0059 q 68.9723,0 113.0085,-6.89723 44.0362,-7.4278 72.1557,-26.52783 29.7112,-20.69171 43.5057,-47.21954 13.7944,-26.52783 13.7944,-68.44181 z m 710.9459,238.75048 h -99.2141 v -63.13624 q -13.2639,9.01947 -36.0778,25.46672 -22.2834,15.9167 -43.5057,25.46672 -24.9361,12.2028 -57.3001,20.16115 -32.364,8.48891 -75.8696,8.48891 -80.114,0 -135.8225,-53.05566 -55.7084,-53.05567 -55.7084,-135.29194 0,-67.38069 28.65,-108.76411 29.1806,-41.91397 82.7669,-65.78902 54.1167,-23.87505 129.9863,-32.36395 75.8696,-8.48891 162.8809,-12.73336 v -15.38614 q 0,-33.95563 -12.2028,-56.23901 -11.6722,-22.28337 -33.9556,-35.01673 -21.2223,-12.20281 -50.9335,-16.44726 -29.7111,-4.24445 -62.0751,-4.24445 -39.2612,0 -87.5418,10.61113 -48.2807,10.08058 -99.7447,29.71117 h -5.3055 v -101.33631 q 29.1806,-7.95835 84.3585,-17.50837 55.1779,-9.55002 108.7641,-9.55002 62.6057,0 108.7641,10.61113 46.689,10.08058 80.6446,35.01674 33.4251,24.4056 50.9334,63.13624 17.5084,38.73063 17.5084,96.03074 z m -99.2141,-145.90307 v -165.00311 q -45.6279,2.65279 -107.703,7.95835 -61.5446,5.30557 -97.6224,15.38614 -42.9751,12.20281 -69.5029,38.20008 -26.5279,25.46672 -26.5279,70.56403 0,50.93344 30.7723,76.93071 30.7723,25.46672 93.9085,25.46672 52.5252,0 96.0308,-20.16115 43.5056,-20.69171 80.6446,-49.34177 z m 786.8154,145.90307 h -99.7446 v -337.43401 q 0,-40.85286 -4.775,-76.40015 -4.775,-36.07785 -17.5084,-56.239 -13.2639,-22.28338 -38.2001,-32.89451 -24.9361,-11.14169 -64.7279,-11.14169 -40.8528,0 -85.4196,20.16115 -44.5668,20.16115 -85.4196,51.46399 v 442.48422 h -99.7447 v -592.63174 h 99.7447 v 65.78902 q 46.689,-38.73063 96.5613,-60.48346 49.8723,-21.75282 102.3974,-21.75282 96.0308,0 146.4336,57.83067 50.4029,57.83068 50.4029,166.59478 z m 835.0961,0 H 3643.369 l -312.4978,-351.75904 -78.5224,83.82795 V -120.0012 H 3147.2986 V -910 h 105.0502 v 412.24249 L 3635.9412,-910 h 127.3336 l -352.8201,371.38963 z"
     id="text1"
     style="font-size:1086.58px;font-family:bo;-inkscape-font-specification:bo;fill:#5a4077;stroke-width:90.549"
     aria-label="BanK" />
</svg>
